<svg xmlns="http://www.w3.org/2000/svg" viewBox="0 0 1691 1238"><path d="M312.9 438.9s-10.9 16.4-13.1 19.6c2.2 2.2 12.5 8.7 14.7 9.8 8.7 4.4 16.6 8.2 23.7 11.5s67.9 24.8 90.8 31.9 158.2 61.9 199.7 85.9c17.4 10.9 31.6 23.2 42.6 36.8 10.9 13.7 18 30.3 21.3 49.9l9.8 44.2c4.4 22.9.5 45.8-11.5 68.7-2.2 4.4-42 60.3-44.2 63s-77.2 77.5-90.8 86.7c-13.7 9.3-51.8 33.3-55.6 36-3.8 2.7-138.6 86.8-147.4 92.3-2.2 2.2-96 57.8-100.3 60-5.5 2.2-20.2 7.1-24.6 8.2-8.7 2.2-70.1 40.6-82.7 49.9s-25.4 18.3-38.5 27c-4.3 2.2-12.9 13.8-30.2 16.4s-20.6-1.1-21.7-1.1c-1.1 0-47.3-45.5-54.9-46.6 0-2.2-1.1-10.9 0-13.1 10.9-24 71.5-63.8 76.9-67.1 15.3-17.5 137.5-95.7 150.6-103.9s40.9-25.4 40.9-25.4c4.3-3.3 33.2-15.7 45.8-24.6 12.6-8.9 26.2-25.6 29.5-27.8 25.1-17.4 60.4-65.9 73-75.1 12.5-9.3 50.5-44.4 54.8-46.6 10.7-7.9 45.4-43.7 68-68.2 7.3-7.3 19.7-22.9 20.4-23.4 7.6-13.1 6-22.9-4.9-29.5-12-10.9-27.3-19.6-45.8-26.2-31.7-9.8-64.4-19.6-98.2-29.5-8.7-2.2-202.4-79.6-214.4-88.4-6.5-5.4-12.3-10.9-17.2-16.4-32.1-32.3-44.8-80.7-44.2-98.2.5-17.4 5.7-35.4 15.5-54 5.4-10.9 12.3-20.7 20.5-29.5 8.2-8.7 17.7-17.4 28.6-26.2 12-10.9 74.7-39.8 86.7-47.5 19.6-14.2 39.3-27.8 58.9-40.9s135.3-78 150.6-86.7c5.4-5.4 61.6-44.7 67.1-49.1 4.3-2.2 15.3-10.9 19.6-13.1C586 75.3 649.3 37 675 37s80.4 71.9 82 80.1 2.5 17.2 2.5 27c-2.2 25.1-13.1 42-32.7 50.7-14.2 8.7-28.9 16.4-44.2 22.9s-68.7 30-78.6 34.4c-9.8 4.4-66 37.6-73.6 40.9-19.6 12-39 24-58.1 36M1628 180c-10.9 22.9-10.3 20.7-25 42s-25.1 42.3-41.5 63c-16.4 22.9-31.9 45.8-46.6 68.7-14.7 22.9-71.5 100.1-81.8 117-10.4 16.9-21.6 34.1-33.6 51.6-8.7 12-42.6 63.8-49.1 76.9-8.7 12-48 60-55.6 72-8.7 12-46.9 60-55.6 72-10.9 13.1-36.8 61.1-45 72s-54.3 69.3-69.6 86.7c-15.3 17.5-72 85.1-75.3 91.7-4.4 8.7-9.6 16.9-15.5 24.6-6 7.6-55.4 64.9-63 73.6-8.7 8.7-18 15.3-27.8 19.6-9.8 4.3-20.7 8.2-32.7 11.5-6.5 1.1-31.1 3.3-37.6 3.3-2.2 1.1-34.4-15-37.6-18.8-3.3-3.8-35.5-12.8-37.6-13.9-12-5.5-19.6-14.7-22.9-27.8-5.5-25.1-4.9-52.9 1.6-83.5 3.3-9.8 15.8-49.6 18-60.6 3.3-25.1 9.3-45.8 18-62.2s16.9-36.5 24.5-60.6c3.3-12 17.4-58.4 22.9-70.4 6.5-17.4 31.1-87.3 37.6-104.8 15.3-39.3 28.6-78.3 40.1-117s25.4-77.7 41.7-117c5.4-10.9 12.8-27.5 22.1-49.9s18.8-46.1 28.6-71.2 19.1-49.1 27.8-72 14.7-40.4 18-52.4l9.8-29.5c4.3-12 8.2-23.2 11.5-33.6s6.5-21 9.8-31.9c3.3-15.3 12.5-24 27.8-26.2 2.2-1.1 8.7-3.8 9.8-4.9 14.2-1.1 70.9-7.9 81.8-.8s21.8 15 32.7 23.7c6.5 5.5 10.6 12 12.3 19.6 1.6 7.6 1.9 15.8.8 24.6 0 6.5-9.6 58.4-12.3 67.1-2.7 8.7-25.4 73.7-28.6 83.5-2.2 5.5-7.1 16.9-14.7 34.4s-15.5 35.8-23.7 54.8c-8.2 19.1-16.1 37.4-23.7 54.8-7.6 17.5-29.2 54-31.9 60.6-2.7 6.5-19.6 44.2-24.5 57.3-4.9 13.1-47.7 99.3-53.2 111.3-14.2 27.3-25.7 54.6-34.4 81.8-8.7 27.3-37.1 112.9-39.3 119.5-8.7 19.6-19.4 40.7-31.9 63-12.6 22.4-18.8 46.1-18.8 71.2 2.2-2.2 6-10.9 8.2-13.1 21.8-25.1 43.6-50.7 65.5-76.9 21.8-26.2 43.1-52.4 63.8-78.6 20.7-30.5 43.1-60.6 67.1-90 24-29.5 46.4-60 67.1-91.7 15.3-19.6 69.8-102.5 85.1-124.4 20.7-30.5 103.6-151.1 124.4-181.7 4.3-6.5 42.8-52.9 56.5-73.7 13.6-20.7 67.4-90.1 73.9-98.3s38.8-43.3 42.8-48.3 32.1-39.8 36.5-48.5c2.2-2.2 27.8-13.1 31.1-16.4 3.3-3.3 33.3-5.7 34.4-.8s-9 53.2-10.6 56.5c-2 3.5-28.6 74.5-28.6 74.5-4.4 6.5-24 47-24 47z" fill="#222"/></svg>