<svg xmlns="http://www.w3.org/2000/svg" viewBox="0 0 250 63.044"><defs><style>.a{fill:#c9c9c9}</style></defs><path class="a" d="M103.099 7.944c-4.957 0-4.48 4.1-4.48 9.056v36.8a9.056 9.056 0 1 0 18.112 0V29.869c0-15.062-8.58-21.925-13.632-21.925zM6.246 21.386c-4.957 0-4.48 4.1-4.48 9.056v23.355a9.056 9.056 0 1 0 18.112 0V43.216c0-14.967-8.58-21.83-13.632-21.83zM152.67 7.754c-7.054 0-13.155 6.578-14.49 10.867-2.86-7.245-8.1-10.677-11.63-10.677-4.957 0-4.48 4.1-4.48 9.056l.1 9.056v27.74a9.056 9.056 0 1 0 18.112 0V32.635c0-3.622 1.144-8.008 6.673-8.008 1.621 0 6.482 0 6.482 8.008v21.163a9.056 9.056 0 0 0 18.112 0V28.254c0-12.679-7.245-20.5-18.875-20.5z"/><path class="a" d="M86.036 7.849c-4.194 0-7.34 2.479-8.675 6.768l-5.815 18.97-5.815-18.78a9.42 9.42 0 0 0-9.152-7.054h-.858a9.42 9.42 0 0 0-9.152 7.054l-5.147 16.684C39.992 26.82 35.893 1.558 11.775.034 3.481-.443 1.098 4.514.336 7.279a7.468 7.468 0 0 0 1.239 6.955c1.621 2.1 4.766 2.383 8.484 3.813 9.437 3.718 11.916 12.107 14.109 17.35.763 1.811 6.1 19.828 6.1 19.828 1.716 4.957 5.148 7.722 9.723 7.722h.477c4.576 0 8.008-2.765 9.533-7.436l6.006-18.777 5.91 18.78c1.525 4.766 4.957 7.436 9.533 7.436h.477c4.576 0 8.008-2.765 9.723-7.626l12.393-35.462v-.1a14.168 14.168 0 0 0 .572-3.432 8.4 8.4 0 0 0-8.58-8.484zM224.452 47.411l-.572-.572-13.441-13.728 10.772-9.152c1.811-1.716 3.908-4.1 3.908-7.626a8.145 8.145 0 0 0-8.2-8.294c-3.432 0-5.624 1.811-7.626 3.718l-14.3 13.537c-1.525-11.916-8.77-17.54-13.346-17.54-4 0-4.576 2.574-4.576 6.2-.1 1.049-.1 2.288-.1 3.527v36.225a9.271 9.271 0 0 0 8.2 9.152c.286 0 .667.1.953.1a9.134 9.134 0 0 0 9.056-9.152v-7.15l3.146-2.86 13.823 15.634a18.992 18.992 0 0 0 2 1.811 8.54 8.54 0 0 0 4 1.716c.1 0 1.144.1 1.716.1 4.1-.1 8.294-3.051 8.2-8.2-.191-3.432-1.811-5.529-3.622-7.436z"/><circle class="a" cx="9.056" cy="9.056" r="9.056" transform="translate(231.888 44.836)"/></svg>