<svg xmlns="http://www.w3.org/2000/svg" viewBox="0 0 250 54.714"><defs><style>.a{fill:#c9c9c9}.b{fill:none;stroke:#9d9d9c;stroke-miterlimit:10;stroke-width:.75px}</style></defs><path class="a" d="M90.548 38.721a15.415 15.415 0 0 1-1.323 6.614 12.229 12.229 0 0 1-4.209 4.81 34.385 34.385 0 0 1-7.937 4.089l-2.766-4.931v-.842a18.436 18.436 0 0 0 6.013-4.329 8.276 8.276 0 0 0 1.8-5.532v-5.17L81.77 9.861l-7.215.241-.842-.843.481-6.373h16.719l-.481 29.582zM139.25 47.019l-.722-13.348-1.563-16.955h-.721l-9.858 25.613h-7.215l-9.022-25.613h-.6l-1.685 16.113-.962 14.19h-7.816l4.449-44.012h10.7l1.8 6.494 6.975 20.924h.6l7.335-20.924 2.052-6.494h10.462l3.968 44.012zM188.552 5.051l-2.044 8.3-.842.12a31.987 31.987 0 0 0-6.013-2.766 17.384 17.384 0 0 0-5.652-.842c-4.089 0-6.975 1.2-8.9 3.608s-2.766 6.373-2.766 11.9a24.558 24.558 0 0 0 1.2 8.658 8.744 8.744 0 0 0 3.728 4.69 13.647 13.647 0 0 0 6.734 1.443 21.412 21.412 0 0 0 5.772-.962l.12-3.728-.12-6.734 8.538-.722-.241 6.013.241 10.7a48.865 48.865 0 0 1-15.152 2.766c-6.854 0-12.025-1.924-15.392-5.652-3.487-3.728-5.171-9.139-5.171-16.114 0-7.576 2.044-13.468 6.012-17.436 3.968-4.089 9.62-6.013 16.955-6.013a32.132 32.132 0 0 1 12.993 2.771zM49.9 27.056s0 .6-.12 1.684a13.39 13.39 0 0 1-.241 2.044c-.12.361-.12.842-.241 1.323l-.361 1.443a23.8 23.8 0 0 1-2.886 7.095 25.285 25.285 0 0 1-6.609 7.455 23.021 23.021 0 0 1-11.063 4.57 6.857 6.857 0 0 1-1.563.12c-.6 0-1.082.12-1.684.12a14.776 14.776 0 0 1-3.247-.24 22.631 22.631 0 0 1-6.734-1.924 24.972 24.972 0 0 1-10.823-9.5A27.282 27.282 0 0 1 1.2 34.392l-.481-1.8c-.12-.6-.241-1.2-.361-1.924A9.346 9.346 0 0 1 .12 28.74L0 26.816c.12-1.2 0-2.405.241-3.728.12-.6.12-1.323.241-1.924l.48-1.924a29.823 29.823 0 0 1 3.006-6.975 26.134 26.134 0 0 1 10.823-9.98A23.631 23.631 0 0 1 21.645.24 17.02 17.02 0 0 1 25.132 0h.842l.842.12a7.4 7.4 0 0 1 1.563.12 25.717 25.717 0 0 1 3.247.722c.481.12 1.082.361 1.563.481.481.241.962.361 1.443.6A30.441 30.441 0 0 1 37.4 3.487a17.184 17.184 0 0 1 2.4 1.684 25.546 25.546 0 0 1 6.5 7.816 29.041 29.041 0 0 1 2.762 7.213l.361 1.443a5.393 5.393 0 0 1 .12 1.323 17.955 17.955 0 0 1 .241 2.044c.12 1.443.12 2.044.12 2.044zm-.361 0s0-.6-.12-1.684a15.349 15.349 0 0 0-.241-2.044c-.12-.361-.12-.842-.241-1.323l-.361-1.443a28.04 28.04 0 0 0-1.2-3.247 12.016 12.016 0 0 0-.962-1.684l-1.082-1.8a25.781 25.781 0 0 0-6.852-6.616c-.722-.481-1.563-.842-2.285-1.323-.842-.361-1.563-.721-2.525-1.082a5.861 5.861 0 0 1-1.323-.481c-.481-.12-.962-.24-1.323-.361a22.2 22.2 0 0 0-2.766-.481c-.481-.12-.962 0-1.563-.12h-1.563a29.073 29.073 0 0 0-3.006.361 20.859 20.859 0 0 0-5.892 1.8 22.347 22.347 0 0 0-9.62 8.418 26.112 26.112 0 0 0-2.886 6.133l-.481 1.684a8.12 8.12 0 0 0-.241 1.684 31.05 31.05 0 0 0-.361 3.487 25.842 25.842 0 0 0 .842 6.734 23.855 23.855 0 0 0 2.646 6.253 23.6 23.6 0 0 0 9.62 8.9 18.485 18.485 0 0 0 6.013 1.924 24.789 24.789 0 0 0 3.127.361h1.443a7.4 7.4 0 0 0 1.563-.12 22 22 0 0 0 10.581-3.848 23.032 23.032 0 0 0 6.734-6.975l1.082-1.8c.241-.6.6-1.2.842-1.8a25.583 25.583 0 0 0 1.082-3.247l.361-1.443c.12-.481.12-.842.241-1.323a15.351 15.351 0 0 0 .241-2.044 3.22 3.22 0 0 0 .481-1.443z"/><path class="a" d="M25.132 3.246s.6-.12 1.563-.24c.481-.12 1.2-.12 1.924-.241a4.091 4.091 0 0 0 1.2-.12h1.443a23.56 23.56 0 0 1 6.975 1.2 24.537 24.537 0 0 1 8.057 4.449 22.286 22.286 0 0 1 6.373 8.9 6.779 6.779 0 0 1 .481 1.443 6.342 6.342 0 0 1 .361 1.443c.12.962.361 1.924.481 3.006a19.06 19.06 0 0 1-.481 6.373 22.887 22.887 0 0 1-6.371 11.667 24.015 24.015 0 0 1-5.536 4.209 18.133 18.133 0 0 1-3.127 1.443 9.425 9.425 0 0 1-1.684.6l-1.8.481a15.159 15.159 0 0 1-3.367.481c-.6 0-1.2.12-1.8.12h-1.8a27.355 27.355 0 0 1-6.975-1.2A23.171 23.171 0 0 1 9.86 39.446a22.892 22.892 0 0 1-3.247-5.772 13.5 13.5 0 0 1-.961-3.128v-.842l-.12-.722c0-.481-.12-.962-.12-1.443a27.1 27.1 0 0 1 0-3.127c0-.481.12-.962.12-1.443a6.036 6.036 0 0 0 .24-1.443 23.426 23.426 0 0 1 .722-2.766l1.082-2.525a24.3 24.3 0 0 1 11.785-11.3c.481-.24.842-.361 1.323-.6.361-.12.842-.241 1.2-.361.722-.241 1.323-.481 1.8-.6a8.13 8.13 0 0 0 1.448-.128zm0 .361s-.481.12-1.563.481c-.481.12-1.082.361-1.8.6a4.271 4.271 0 0 0-1.082.481 11.174 11.174 0 0 1-1.2.6c-.842.481-1.684 1.082-2.646 1.684a11.975 11.975 0 0 0-1.323 1.2 13.719 13.719 0 0 0-1.323 1.323 21.571 21.571 0 0 0-4.449 7.456 16.019 16.019 0 0 0-.6 2.285 16.6 16.6 0 0 0-.361 2.405c0 .361-.12.842-.12 1.2v1.323c0 .842.12 1.684.12 2.525a5.114 5.114 0 0 0 .24 1.323l.12.721.12.361v.241a20.723 20.723 0 0 0 .837 2.53 16.124 16.124 0 0 0 2.766 4.81 22.926 22.926 0 0 0 9.38 6.975 25.583 25.583 0 0 0 6.013 1.323l1.563.12h1.563c.962 0 2.165-.241 3.247-.361a25.415 25.415 0 0 0 5.768-2.043 21.475 21.475 0 0 0 5.051-3.608 21.843 21.843 0 0 0 6.133-10.342 18.883 18.883 0 0 0 .6-5.772 23.653 23.653 0 0 0-.361-2.886 10.843 10.843 0 0 0-.721-2.646 21.933 21.933 0 0 0-5.532-8.778 22.443 22.443 0 0 0-7.57-4.692 10.582 10.582 0 0 0-1.8-.6 10.018 10.018 0 0 1-1.8-.481c-1.2-.12-2.164-.361-3.127-.361h-1.333c-.481 0-.842.12-1.2.12a9.346 9.346 0 0 0-1.924.241 21.54 21.54 0 0 0-1.684.241z"/><path class="a" d="M52.79 28.98s0 .6-.12 1.684a15.35 15.35 0 0 1-.241 2.044c-.12.361-.12.842-.241 1.323l-.361 1.443a23.256 23.256 0 0 1-2.886 6.975 26.3 26.3 0 0 1-6.492 7.456 22.632 22.632 0 0 1-10.823 4.569 6.857 6.857 0 0 1-1.563.12c-.6 0-1.082.12-1.683.12a15.325 15.325 0 0 1-3.247-.241 21.906 21.906 0 0 1-6.614-1.924 25.889 25.889 0 0 1-10.7-9.38 31.344 31.344 0 0 1-3.127-6.734l-.481-1.8-.361-1.8a9.346 9.346 0 0 1-.242-1.93V28.86c.12-1.2 0-2.285.241-3.608.12-.6.12-1.323.241-1.924l.481-1.8a29.45 29.45 0 0 1 2.886-6.975 24.861 24.861 0 0 1 10.7-9.861 22.577 22.577 0 0 1 6.851-2.047 17.02 17.02 0 0 1 3.492-.24h.842l.722.12a7.4 7.4 0 0 1 1.563.12 25.717 25.717 0 0 1 3.247.722c.481.12.962.361 1.563.481.481.241.962.361 1.443.6a18.582 18.582 0 0 1 2.646 1.443 29.171 29.171 0 0 1 2.4 1.684 27.4 27.4 0 0 1 6.494 7.816 28.191 28.191 0 0 1 2.649 7.214l.361 1.443c0 .481.12.962.12 1.323a6.308 6.308 0 0 1 .12 2.044 13.969 13.969 0 0 1 .12 1.563zm-.361 0s0-.6-.12-1.683a15.349 15.349 0 0 0-.241-2.044c-.12-.361-.12-.842-.24-1.323l-.361-1.443a28.041 28.041 0 0 0-1.2-3.247c-.241-.6-.6-1.082-.842-1.684-.361-.6-.721-1.082-1.082-1.684a23.252 23.252 0 0 0-6.735-6.492 13.709 13.709 0 0 0-2.285-1.2 15.709 15.709 0 0 0-2.525-.962 5.862 5.862 0 0 1-1.323-.481c-.481-.12-.842-.241-1.323-.361a24.878 24.878 0 0 0-2.644-.484c-.481-.12-.962 0-1.563-.12H28.38a19.249 19.249 0 0 1-2.766.361 21.338 21.338 0 0 0-5.772 1.8 23.294 23.294 0 0 0-9.5 8.3 21.076 21.076 0 0 0-2.766 6.013l-.481 1.559a8.276 8.276 0 0 0-.24 1.563 28.341 28.341 0 0 0-.361 3.487 24.952 24.952 0 0 0 .842 6.614 21.524 21.524 0 0 0 2.645 6.136 22.241 22.241 0 0 0 9.5 8.778 18.788 18.788 0 0 0 5.892 1.922 24.789 24.789 0 0 0 3.127.361h1.443a5.855 5.855 0 0 0 1.443-.12 22.716 22.716 0 0 0 10.462-3.724 22.235 22.235 0 0 0 6.614-6.854l1.082-1.8c.241-.6.6-1.2.842-1.8.361-1.2.842-2.285 1.082-3.247l.361-1.443c.12-.481.12-.842.241-1.323a15.351 15.351 0 0 0 .238-2.05 10.413 10.413 0 0 0 .12-1.323z"/><path class="a" d="M48.702 10.943s.361.361 1.082 1.2c.361.361.721.842 1.2 1.443.241.361.481.6.721.962a10.574 10.574 0 0 1 .722 1.2 23.6 23.6 0 0 1 2.525 6.494 30.747 30.747 0 0 1 .6 9.019 25.419 25.419 0 0 1-3.608 10.342c-.481.842-1.2 1.684-1.8 2.525v.12l-.12.12-.361.12-.241.241-.481.481a9.183 9.183 0 0 1-1.082 1.082 27.755 27.755 0 0 1-5.411 3.848 28.446 28.446 0 0 1-6.614 2.164 24.2 24.2 0 0 1-7.215-.12 20.917 20.917 0 0 1-6.975-2.4 27.1 27.1 0 0 1-5.892-4.449l-1.2-1.323a15.02 15.02 0 0 1-1.082-1.443 22.972 22.972 0 0 1-1.924-3.247 23.751 23.751 0 0 1-2.285-6.975 23.461 23.461 0 0 1-.12-7.095 24.469 24.469 0 0 1 1.8-6.614 24.776 24.776 0 0 1 7.577-9.978 22.623 22.623 0 0 1 25.613-1.445c.361.24.842.481 1.2.722s.6.481.962.721c.6.481 1.082.842 1.443 1.2.6.722.962 1.082.962 1.082zm-.241.241l-1.083-1.083c-.361-.361-.842-.722-1.443-1.2a6.67 6.67 0 0 0-.962-.721l-1.082-.72a19.967 19.967 0 0 0-6.253-2.41 21.683 21.683 0 0 0-8.778.12 21.461 21.461 0 0 0-9.258 4.811 21.811 21.811 0 0 0-6.373 9.5 23.474 23.474 0 0 0-.842 12.266 27.3 27.3 0 0 0 2.043 6.013 22.644 22.644 0 0 0 3.728 5.171 22.99 22.99 0 0 0 5.051 3.968 21.791 21.791 0 0 0 5.893 2.161 27.321 27.321 0 0 0 6.253.361 19.389 19.389 0 0 0 5.89-1.561 21 21 0 0 0 8.9-7.215 23.556 23.556 0 0 0 4.089-9.5 23.764 23.764 0 0 0-.12-8.778 24.483 24.483 0 0 0-2.285-6.373 5.617 5.617 0 0 1-.6-1.2 6.671 6.671 0 0 0-.727-.965 7.5 7.5 0 0 0-1.082-1.443c-.6-.721-.962-1.2-.962-1.2z"/><g><path class="a" d="M214.406 14.67a3.329 3.329 0 0 1-.12 1.082 5.866 5.866 0 0 1-.361.842 1.2 1.2 0 0 1-.6.481 2.344 2.344 0 0 1-.962.12h-.361a.442.442 0 0 1-.361-.12.42.42 0 0 1-.24-.12.118.118 0 0 1-.12-.12l-.12-.12v-.842a.118.118 0 0 1 .12-.12h.241c.12 0 .12.12.24.12a.42.42 0 0 1 .241.12h.361a.723.723 0 0 0 .481-.12.259.259 0 0 0 .241-.24c.12-.12.12-.24.12-.481V7.455l.12-.12h1.082a.118.118 0 0 1 .12.12v.12l-.12 7.095zM222.944 13.468a5.169 5.169 0 0 1-.24 1.443 3.762 3.762 0 0 1-.6 1.2 1.751 1.751 0 0 1-1.082.722 3.05 3.05 0 0 1-1.443.24 5.168 5.168 0 0 1-1.443-.24 1.87 1.87 0 0 1-.962-.722 4.874 4.874 0 0 1-.6-1.082 6.035 6.035 0 0 1-.241-1.443 5.168 5.168 0 0 1 .241-1.443 3.761 3.761 0 0 1 .6-1.2 1.751 1.751 0 0 1 1.082-.722 6.036 6.036 0 0 1 1.443-.241 5.168 5.168 0 0 1 1.443.241 1.87 1.87 0 0 1 .962.722 4.875 4.875 0 0 1 .6 1.082 4.485 4.485 0 0 1 .24 1.443zm-1.323.12a2.344 2.344 0 0 0-.12-.962c-.12-.361-.12-.6-.361-.842a1.449 1.449 0 0 0-.6-.6 2.044 2.044 0 0 0-1.924 0 2.624 2.624 0 0 0-.6.481 5.866 5.866 0 0 0-.361.842 3.329 3.329 0 0 0-.12 1.082 2.344 2.344 0 0 0 .12.962c.12.361.12.6.361.842a1.449 1.449 0 0 0 .6.6 2.044 2.044 0 0 0 1.924 0 2.623 2.623 0 0 0 .6-.481 5.862 5.862 0 0 0 .361-.842 3.329 3.329 0 0 0 .12-1.081zM230.76 13.468a6.093 6.093 0 0 1-.24 1.563 3.762 3.762 0 0 1-.6 1.2 1.617 1.617 0 0 1-.842.722 3.558 3.558 0 0 1-1.2.241 1.084 1.084 0 0 1-.6-.12.912.912 0 0 1-.481-.24c-.12-.12-.361-.241-.481-.361a2.623 2.623 0 0 0-.6-.481v.962l-.12.12h-.722a.118.118 0 0 1-.12-.12v-10.1l.12-.12h1.074a.118.118 0 0 1 .12.12v4.089a2.111 2.111 0 0 1 .6-.481 1.66 1.66 0 0 0 .481-.361c.12-.12.361-.12.481-.241h.6a3.557 3.557 0 0 1 1.2.241 5.229 5.229 0 0 1 .842.722 4.271 4.271 0 0 1 .481 1.082c.007.601.007 1.082.007 1.563zm-1.2.12a2.344 2.344 0 0 0-.12-.962 1.738 1.738 0 0 0-.24-.842 1.2 1.2 0 0 0-.481-.6 1.738 1.738 0 0 0-.842-.24.723.723 0 0 0-.481.12.912.912 0 0 0-.481.24c-.12.12-.361.241-.481.361l-.6.6v2.646a7.256 7.256 0 0 0 .962.962 1.6 1.6 0 0 0 .962.361 1.738 1.738 0 0 0 .842-.24 1.2 1.2 0 0 0 .481-.6 1.738 1.738 0 0 0 .24-.842 1.446 1.446 0 0 0 .237-.964zM236.652 15.031a2.83 2.83 0 0 1-.24.962c-.12.241-.361.481-.481.722a1.092 1.092 0 0 1-.842.361 3.329 3.329 0 0 1-1.082.12h-.721c-.241 0-.361-.12-.6-.12-.12 0-.361-.12-.481-.12a.425.425 0 0 1-.361-.361v-.722a.118.118 0 0 1 .12-.12h.12a.372.372 0 0 1 .24.12c.12.12.24.12.361.24s.361.12.6.24a1.525 1.525 0 0 0 .722.12 1.084 1.084 0 0 0 .6-.12.912.912 0 0 0 .481-.24c.12-.12.241-.24.241-.361.12-.12.12-.241.12-.481s0-.361-.12-.481l-.361-.361a.912.912 0 0 0-.481-.24c-.24-.12-.361-.12-.6-.241s-.361-.12-.6-.24a1.66 1.66 0 0 1-.481-.361 2.63 2.63 0 0 1-.361-.6 1.525 1.525 0 0 1-.12-.722 1.525 1.525 0 0 1 .12-.722 1.2 1.2 0 0 1 .481-.6c.24-.12.481-.361.721-.481a2.669 2.669 0 0 1 1.082-.12h.481c.12 0 .361.12.481.12s.24.12.361.12.12.12.241.12l.12.12v.842a.118.118 0 0 1-.12.12h-.12a.372.372 0 0 1-.24-.12c-.12 0-.24-.12-.361-.12-.12-.12-.24-.12-.481-.12a5.208 5.208 0 0 0-.6-.12 1.084 1.084 0 0 0-.6.12c-.12 0-.241.12-.361.241s-.12.24-.24.361c0 .12-.12.241-.12.361 0 .24 0 .361.12.481l.361.361a.912.912 0 0 0 .481.24c.241.12.361.12.6.241s.361.12.6.241a1.66 1.66 0 0 1 .481.361c.12.12.24.361.361.481.478-.003.478.238.478.478zM244.585 12.386a5.019 5.019 0 0 1-.721-.962 2.265 2.265 0 0 1-.241-.962 2.046 2.046 0 0 1 .12-.842 1.2 1.2 0 0 1 .481-.6c.24-.12.361-.361.721-.481a2.046 2.046 0 0 1 .842-.12 1.783 1.783 0 0 1 .842.12 2.629 2.629 0 0 1 .6.361 1.023 1.023 0 0 1 .361.6 1.525 1.525 0 0 1 .12.722 1.808 1.808 0 0 1-.481 1.323 2.747 2.747 0 0 1-1.443.962l2.044 1.924c.12-.12.12-.361.241-.481 0-.12.12-.361.12-.481s.12-.361.12-.481a.912.912 0 0 1 .24-.481c.12-.12.24-.24.361-.24a.9.9 0 0 1 .6-.12l.24.842c-.12 0-.361 0-.361.12l-.24.24c0 .12-.12.24-.12.361s-.12.361-.12.481-.12.361-.12.481a.912.912 0 0 1-.24.481l1.443 1.323-.722.721-1.323-1.2a7.781 7.781 0 0 1-1.082.962 2.564 2.564 0 0 1-1.443.361 2.344 2.344 0 0 1-.962-.12 1.938 1.938 0 0 1-.842-.481 3.189 3.189 0 0 1-.6-.721 2.266 2.266 0 0 1-.24-.962 2.424 2.424 0 0 1 .361-1.323 3.823 3.823 0 0 1 1.444-1.327zm.481.6a5.23 5.23 0 0 0-.842.722 2.265 2.265 0 0 0-.241.962 1.084 1.084 0 0 0 .12.6c.12.12.24.361.361.481s.361.241.481.361a1.525 1.525 0 0 0 .722.12 2.286 2.286 0 0 0 1.8-.962zm-.361-2.525a3.059 3.059 0 0 0 .24.842 3.189 3.189 0 0 0 .6.722 4.2 4.2 0 0 0 1.082-.722 1.3 1.3 0 0 0 .361-.842 1.709 1.709 0 0 0-.24-.722 1.039 1.039 0 0 0-.722-.361 1.092 1.092 0 0 0-.842.361.659.659 0 0 0-.475.723zM222.46 31.867a.118.118 0 0 1-.12.12h-1.08a.118.118 0 0 1-.12-.12v-8.418l-3.367 8.3a.118.118 0 0 1-.12.12.118.118 0 0 0-.12.12h-.962a.118.118 0 0 1-.12-.12v-.12l-3.247-8.3v8.418l-.12.12h-1.2a.118.118 0 0 1-.12-.12v-8.9c0-.241 0-.361.12-.481a.442.442 0 0 1 .361-.12h1.082c.12 0 .24.12.361.12l.24.241c0 .12.12.241.12.361l2.766 6.854 2.886-6.854c0-.12.12-.241.12-.361.12-.12.12-.241.24-.241.12-.12.12-.12.241-.12h1.443c.12 0 .12 0 .12.12l.12.12v9.261zM230.519 28.259c0 .24 0 .361-.12.361a.442.442 0 0 1-.361.12h-4.331a2.344 2.344 0 0 0 .12.962 4 4 0 0 0 .361.722 1.1 1.1 0 0 0 .721.481 2.344 2.344 0 0 0 .962.12 1.783 1.783 0 0 0 .842-.12 5.208 5.208 0 0 0 .6-.12.723.723 0 0 1 .481-.12.42.42 0 0 0 .24-.12h.12l.12.12c.12.12 0 .12 0 .12v.6l-.12.12a.42.42 0 0 1-.24.12c-.12.12-.361.12-.481.241-.241 0-.481.12-.722.12s-.6.12-.842.12a5.168 5.168 0 0 1-1.443-.241 2.839 2.839 0 0 1-1.082-.722 3.153 3.153 0 0 1-.6-1.082 6.092 6.092 0 0 1-.24-1.563 6.094 6.094 0 0 1 .24-1.563 3.762 3.762 0 0 1 .6-1.2 1.87 1.87 0 0 1 .962-.722 3.758 3.758 0 0 1 2.646 0 1.271 1.271 0 0 1 .842.722 2.417 2.417 0 0 1 .481.962 4.09 4.09 0 0 1 .12 1.2l.12.361zm-1.2-.361a1.917 1.917 0 0 0-.481-1.443 1.552 1.552 0 0 0-1.323-.6 2.046 2.046 0 0 0-.842.12 2.111 2.111 0 0 0-.6.481c-.12.241-.24.361-.361.6a1.525 1.525 0 0 0-.12.722h3.728zM237.975 31.867a.118.118 0 0 1-.12.12h-.722a.118.118 0 0 1-.12-.12v-.962a3.316 3.316 0 0 1-1.082.842 4.581 4.581 0 0 1-1.2.361 3.557 3.557 0 0 1-1.2-.241 5.229 5.229 0 0 1-.842-.722 4.272 4.272 0 0 1-.481-1.082 4.932 4.932 0 0 1-.12-1.323 6.093 6.093 0 0 1 .24-1.563 3.762 3.762 0 0 1 .6-1.2 1.617 1.617 0 0 1 .842-.722 3.558 3.558 0 0 1 1.2-.241 3.511 3.511 0 0 1 1.082.241 2.522 2.522 0 0 1 .962.722v-3.971l.12-.12h1.082a.118.118 0 0 1 .12.12v9.861h-.361zm-1.2-4.69a7.254 7.254 0 0 0-.962-.962 1.6 1.6 0 0 0-.962-.361 1.738 1.738 0 0 0-.842.241 1.2 1.2 0 0 0-.481.6 1.738 1.738 0 0 0-.241.842 2.648 2.648 0 0 0-.12.962 2.648 2.648 0 0 0 .12.962 1.738 1.738 0 0 0 .241.842 1.2 1.2 0 0 0 .481.6 1.738 1.738 0 0 0 .842.241.723.723 0 0 0 .481-.12.912.912 0 0 0 .481-.241c.12-.12.361-.241.481-.361l.6-.6-.12-2.646zM241.583 23.088a.9.9 0 0 1-.12.6 1.563 1.563 0 0 1-1.2 0c-.12-.12-.12-.241-.12-.6a.9.9 0 0 1 .12-.6 1.563 1.563 0 0 1 1.2 0c.12.119.12.24.12.6zm-.12 8.778a.118.118 0 0 1-.12.12h-1.083a.118.118 0 0 1-.12-.12v-6.733l.12-.12h1.08a.118.118 0 0 1 .12.12v6.734zM248.677 31.866c0 .12-.12.12-.12.241h-.722c-.12 0-.12 0-.12-.12v-.722a1.87 1.87 0 0 1-.962.722 3.511 3.511 0 0 1-1.082.241 2.648 2.648 0 0 1-.962-.12l-.723-.362a1.2 1.2 0 0 1-.481-.6 1.783 1.783 0 0 1-.12-.842 2.266 2.266 0 0 1 .24-.962 3.189 3.189 0 0 1 .6-.721 1.47 1.47 0 0 1 1.082-.361 4.955 4.955 0 0 1 1.443-.12h.962v-.481a1.525 1.525 0 0 0-.12-.722.85.85 0 0 0-.721-.722 1.525 1.525 0 0 0-.722-.12 2.046 2.046 0 0 0-.842.12c-.24.12-.481.12-.6.241s-.361.12-.481.241a.372.372 0 0 1-.241.12h-.12l-.12-.12v-.6c0-.12 0-.12.12-.241a.925.925 0 0 1 .361-.241c.12-.12.361-.12.6-.24a1.525 1.525 0 0 1 .721-.12c.241 0 .481-.12.722-.12a3.707 3.707 0 0 1 1.2.12 1.938 1.938 0 0 1 .842.481 2.516 2.516 0 0 1 .481.722 3.329 3.329 0 0 1 .12 1.082v4.329h-.24zm-1.2-3.006h-1.082a1.783 1.783 0 0 0-.842.12.919.919 0 0 0-.6.24l-.361.361a.723.723 0 0 0-.12.481 1.092 1.092 0 0 0 .361.842 1.184 1.184 0 0 0 .962.361 1.738 1.738 0 0 0 .842-.241 2.254 2.254 0 0 0 .842-.722zM219.216 38.841v.361a.118.118 0 0 1-.12.12h-.12a.372.372 0 0 1-.24-.12 2.629 2.629 0 0 0-.6-.361 5.863 5.863 0 0 0-.842-.361 3.329 3.329 0 0 0-1.082-.12 6.036 6.036 0 0 0-1.443.24c-.481.12-.722.481-1.082.842a10.579 10.579 0 0 0-.721 1.2 6.092 6.092 0 0 0-.241 1.563 5.337 5.337 0 0 0 .241 1.563 2.5 2.5 0 0 0 .721 1.2 1.751 1.751 0 0 0 1.082.722 4.323 4.323 0 0 0 1.323.241 2.046 2.046 0 0 0 .842-.12c.361-.12.6-.12.842-.361v-2.761h-2.167c-.12 0-.12 0-.24-.12 0-.12-.12-.241-.12-.361v-.36a.118.118 0 0 1 .12-.12h3.247a.118.118 0 0 1 .12.12l.12.12v3.848a.442.442 0 0 1-.12.361c0 .12-.12.12-.241.241s-.361.12-.6.24-.481.12-.721.241c-.241 0-.481.12-.722.12h-.722a4.579 4.579 0 0 1-1.924-.361 4.324 4.324 0 0 1-1.443-.962 6.818 6.818 0 0 1-.962-1.563 4.985 4.985 0 0 1-.361-1.924 5.617 5.617 0 0 1 .361-2.044 6.818 6.818 0 0 1 .962-1.563 3.807 3.807 0 0 1 1.443-.962 4.985 4.985 0 0 1 1.923-.362 2.344 2.344 0 0 1 .962.12 7.662 7.662 0 0 1 .842.241c.241.12.481.12.6.241s.24.241.361.241a4 4 0 0 1 .722.361v.359zM225.349 40.765v.478h-.241a.372.372 0 0 1-.241-.12c-.12 0-.12 0-.24-.12a.167.167 0 0 0-.24 0 .442.442 0 0 0-.361.12c-.12 0-.24.12-.361.241a1.66 1.66 0 0 0-.364.479 7.364 7.364 0 0 1-.481.721v4.449l-.12.12h-1.079a.118.118 0 0 1-.12-.12v-6.85l.12-.12h.722a.118.118 0 0 1 .12.12v1.08c.241-.241.361-.481.481-.6s.361-.241.481-.361.24-.12.481-.241h.962c.12 0 .12 0 .24.12.12 0 .12 0 .12.12v.362c.121-.119.121 0 .121.122zM232.684 43.53a5.168 5.168 0 0 1-.24 1.443 3.762 3.762 0 0 1-.6 1.2 1.751 1.751 0 0 1-1.082.722 3.05 3.05 0 0 1-1.443.241 5.168 5.168 0 0 1-1.443-.241 1.87 1.87 0 0 1-.962-.722 4.875 4.875 0 0 1-.6-1.082 6.035 6.035 0 0 1-.24-1.443 5.168 5.168 0 0 1 .24-1.443 3.762 3.762 0 0 1 .6-1.2 1.751 1.751 0 0 1 1.082-.721 2.819 2.819 0 0 1 1.443-.241 5.167 5.167 0 0 1 1.443.241 1.87 1.87 0 0 1 .962.721 4.875 4.875 0 0 1 .6 1.082 4.485 4.485 0 0 1 .24 1.443zm-1.323.12a2.344 2.344 0 0 0-.12-.962c-.12-.241-.12-.6-.361-.842a1.449 1.449 0 0 0-.6-.6 2.044 2.044 0 0 0-1.924 0 2.623 2.623 0 0 0-.6.481 2.873 2.873 0 0 0-.361.842 3.329 3.329 0 0 0-.12 1.082 2.344 2.344 0 0 0 .12.962c.12.361.12.6.361.842a1.449 1.449 0 0 0 .6.6 2.044 2.044 0 0 0 1.924 0 2.624 2.624 0 0 0 .6-.481 5.865 5.865 0 0 0 .361-.842 3.33 3.33 0 0 0 .12-1.081zM240.019 46.897a.118.118 0 0 1-.12.12h-.721a.118.118 0 0 1-.12-.12v-.962a7.781 7.781 0 0 1-1.082.962 1.787 1.787 0 0 1-1.082.241 2.4 2.4 0 0 1-1.082-.241 1.768 1.768 0 0 1-.722-.6 1.3 1.3 0 0 1-.361-.842 3.707 3.707 0 0 1-.12-1.2v-4.092l.12-.12h.962a.118.118 0 0 1 .12.12v3.968a2.344 2.344 0 0 0 .12.962.919.919 0 0 0 .24.6 1.661 1.661 0 0 0 .481.361.9.9 0 0 0 .6.12 1.6 1.6 0 0 0 .962-.361 3.629 3.629 0 0 0 .962-.962v-4.688l.12-.12h.962a.118.118 0 0 1 .12.12v6.734zM248.437 43.531a6.093 6.093 0 0 1-.24 1.563 3.761 3.761 0 0 1-.6 1.2 2.253 2.253 0 0 1-.842.721 3.558 3.558 0 0 1-1.2.241h-.6a.912.912 0 0 1-.481-.241c-.12-.12-.361-.241-.481-.361s-.361-.241-.481-.481v3.37l-.12.12h-1.088c-.12 0-.12 0-.12-.12v-9.5l.12-.12h.722a.118.118 0 0 1 .12.12v.96a2.112 2.112 0 0 1 .6-.481c.241-.12.361-.241.6-.361s.361-.12.6-.241c.24 0 .361-.12.6-.12a3.557 3.557 0 0 1 1.2.241 5.229 5.229 0 0 1 .842.722 4.27 4.27 0 0 1 .481 1.082 5.3 5.3 0 0 1 .368 1.686zm-1.323.12a2.344 2.344 0 0 0-.12-.962 1.738 1.738 0 0 0-.24-.842 1.2 1.2 0 0 0-.481-.6 1.738 1.738 0 0 0-.842-.24.723.723 0 0 0-.481.12.912.912 0 0 0-.481.241c-.12.12-.361.241-.481.361l-.6.6v2.646a7.257 7.257 0 0 0 .962.962 1.365 1.365 0 0 0 .962.361 1.738 1.738 0 0 0 .842-.241 1.2 1.2 0 0 0 .481-.6 1.738 1.738 0 0 0 .24-.842 1.446 1.446 0 0 0 .239-.964z"/></g><path class="b" d="M206.95 4.69v46.537"/></svg>