<svg xmlns="http://www.w3.org/2000/svg" viewBox="0 0 250 54.107"><defs><style>.a{fill:#c9c9c9}</style></defs><path class="a" d="M28.831 19.879a8.629 8.629 0 0 0-2.5-6.451 7.715 7.715 0 0 0-2.9-1.843 11.421 11.421 0 0 0-3.686-.658 16.719 16.719 0 0 0-4.476.658 22.779 22.779 0 0 0-4.081 1.843v-2.106H0v6.187h4.739v24.618h10.8V35.94h-4.217V20.932a19.35 19.35 0 0 1 1.711-1.316l1.975-1.185a17.582 17.582 0 0 1 2.37-.922 10.162 10.162 0 0 1 1.975-.263 3.091 3.091 0 0 1 2.106.658 3.235 3.235 0 0 1 .658 2.238v21.985h10.927V35.94h-4.213V19.879zm21.459-8.952a14.609 14.609 0 0 0-10.927 4.608 16.029 16.029 0 0 0-4.344 11.322 15.809 15.809 0 0 0 4.344 11.322 14.144 14.144 0 0 0 10.927 4.607 14.609 14.609 0 0 0 10.927-4.608 16.029 16.029 0 0 0 4.344-11.322 15.809 15.809 0 0 0-4.344-11.322 14.207 14.207 0 0 0-10.927-4.607zM56.477 34.1a7.713 7.713 0 0 1-6.187 2.63 8.147 8.147 0 0 1-6.19-2.63 10.614 10.614 0 0 1-2.5-7.109 9.992 9.992 0 0 1 2.5-7.109 7.713 7.713 0 0 1 6.187-2.633 8.147 8.147 0 0 1 6.187 2.633 10.614 10.614 0 0 1 2.5 7.109 9.992 9.992 0 0 1-2.497 7.109zm28.568-21.988a21.254 21.254 0 0 0-3.423 1.188 9.819 9.819 0 0 0-1.58.922c-.527.395-.922.527-1.053.658v-3.558H67.667v6.187h4.739v24.618H83.2V35.94h-4.211V25.671a9.5 9.5 0 0 1 .527-3.686 6.337 6.337 0 0 1 1.58-2.106 7.554 7.554 0 0 1 2.9-1.58 14.6 14.6 0 0 1 4.476-.658h2.9v-5.793h-2.9a9.8 9.8 0 0 0-3.423.263zM123.749 0h-6.582v13.955a13.044 13.044 0 0 0-2.238-1.448 13.747 13.747 0 0 0-6.451-1.58 14.322 14.322 0 0 0-10.8 4.608c-2.9 3.028-4.213 6.846-4.213 11.453a15.5 15.5 0 0 0 4.344 11.19 14.209 14.209 0 0 0 10.8 4.476 15.873 15.873 0 0 0 6.451-1.448 2.867 2.867 0 0 0 1.053-.658c.395-.263.658-.527 1.053-.79v2.5h10.8v-6.186h-4.213zM114.8 33.834a7.713 7.713 0 0 1-6.187 2.633 8.21 8.21 0 0 1-6.187-2.765 9.558 9.558 0 0 1-2.5-6.846 9.992 9.992 0 0 1 2.5-7.109 7.939 7.939 0 0 1 6.056-2.765 8.21 8.21 0 0 1 6.187 2.765 9.978 9.978 0 0 1 2.633 6.977c-.132 3.028-.922 5.4-2.5 7.109zm26.59-22.512h-11.322v6.187h4.739v24.75H146v-6.187h-4.61zm31.069 2.5a11.369 11.369 0 0 0-2.106-1.316 14.021 14.021 0 0 0-6.319-1.58 14.322 14.322 0 0 0-10.8 4.608 16.516 16.516 0 0 0-4.213 11.322 16.486 16.486 0 0 0 4.213 11.585 13.688 13.688 0 0 0 4.871 3.423 15.033 15.033 0 0 0 6.056 1.053 14.141 14.141 0 0 0 6.451-1.58 2.361 2.361 0 0 0 .922-.658c.263-.263.658-.395.922-.658v7.9h-4.213v6.187h10.8v-36.6h4.739v-6.186h-11.323v2.5zm-.259 17.247a7.814 7.814 0 0 1-1.843 3.028 8.234 8.234 0 0 1-6.319 2.633 8.353 8.353 0 0 1-6.187-2.633 8.607 8.607 0 0 1-1.711-3.028 12.621 12.621 0 0 1-.658-4.081 11.232 11.232 0 0 1 .658-3.949 9.5 9.5 0 0 1 1.843-3.16 8.167 8.167 0 0 1 6.319-2.633 7.865 7.865 0 0 1 6.056 2.633 10.138 10.138 0 0 1 2.5 7.109 13.255 13.255 0 0 1-.658 4.081zm40.548-19.747h-6.582v20.8a12.947 12.947 0 0 1-3.686 2.5 9.83 9.83 0 0 1-4.344 1.185c-1.711 0-2.633-.922-2.633-2.765v-21.72h-6.582V33.7a9.817 9.817 0 0 0 .527 3.423 7.842 7.842 0 0 0 1.843 2.765 8.367 8.367 0 0 0 2.9 1.843 9.817 9.817 0 0 0 3.423.527 15.3 15.3 0 0 0 6.451-1.316 7.816 7.816 0 0 0 1.053-.527c.395-.132.658-.395 1.053-.527V42h10.8v-6.192h-4.213V11.322zm21.985 25.671a9.006 9.006 0 0 1-6.187-2.765 10.375 10.375 0 0 1-2.5-4.739H250a28.6 28.6 0 0 0-1.448-8.425 18.069 18.069 0 0 0-3.16-5.661 13.824 13.824 0 0 0-10.8-4.476 15.193 15.193 0 0 0-11.19 4.608 15.906 15.906 0 0 0-4.344 11.453 15.932 15.932 0 0 0 .132 2.5 14.8 14.8 0 0 0 4.344 8.952 14.693 14.693 0 0 0 11.066 4.609s8.425.395 12.9-6.056l-5.529-2.9a8.869 8.869 0 0 1-7.242 2.9zm-6.582-17.114a7.9 7.9 0 0 1 6.319-2.765 8.043 8.043 0 0 1 5.924 2.238 9.915 9.915 0 0 1 2.37 3.949h-16.592a8.967 8.967 0 0 1 1.974-3.422zM134.676 0h6.714v6.714h-6.714z"/></svg>