<svg width="512" height="462" viewBox="0 0 512 462" xmlns="http://www.w3.org/2000/svg"><title>Group</title><defs><radialGradient cy="28.295%" fx="50%" fy="28.295%" r="115.534%" gradientTransform="matrix(0 1 -.58097 0 .664 -.217)" id="a"><stop stop-color="#FD7C00" offset="0%"/><stop stop-color="#F35300" offset="100%"/></radialGradient><radialGradient cy="2.498%" fx="50%" fy="2.498%" r="83.701%" gradientTransform="matrix(0 .98955 -1 0 .525 -.47)" id="b"><stop stop-color="#FDCE21" offset="0%"/><stop stop-color="#FDA500" offset="100%"/></radialGradient><linearGradient x1="79.592%" y1="81.25%" x2="30.854%" y2="50%" id="c"><stop stop-color="#FDD12B" offset="0%"/><stop stop-color="#FDC003" offset="100%"/></linearGradient><radialGradient cy="0%" fx="50%" fy="0%" r="100%" gradientTransform="matrix(0 1 -.56115 0 .5 -.5)" id="d"><stop stop-color="#FEF3CB" offset="0%"/><stop stop-color="#FEDD67" offset="100%"/></radialGradient><linearGradient x1="100%" y1="50%" x2="0%" y2="50%" id="e"><stop stop-color="#FC8900" offset="0%"/><stop stop-color="#FCAA00" offset="100%"/></linearGradient><filter x="-46.6%" y="-147.1%" width="193.2%" height="394.1%" filterUnits="objectBoundingBox" id="f"><feGaussianBlur stdDeviation="50" in="SourceGraphic"/></filter></defs><g transform="translate(9 15)" fill="none" fill-rule="evenodd"><path transform="rotate(-180 247 223.5)" d="M247 0l247 287H0z" fill="url(#a)"/><path fill="#FDCA0D" d="M247 447L100 160h294z"/><path fill="url(#b)" transform="rotate(-180 197 223.5)" d="M147 0l142 287H5z"/><path transform="rotate(-180 123.5 80)" d="M140 145l7-145L0 160z" fill="url(#c)"/><path transform="matrix(1 0 0 -1 247 160)" d="M140 145l7-145L0 160z" fill="url(#c)"/><path fill="#FEFBED" d="M247 0L100 160h294z"/><path fill="url(#d)" transform="rotate(-180 197 78)" d="M147 156L286 0H8z"/><path fill="#FEE693" d="M107 15L52 88 0 160h105z"/><path fill="url(#e)" transform="rotate(-180 53.5 80)" d="M0 145L107 0 7 4z"/><g><path fill="#FEE693" d="M387 15l55 73 52 72H389z"/><path fill="url(#e)" transform="matrix(1 0 0 -1 387 160)" d="M0 145L107 0 7 4z"/></g><ellipse fill="#FFF" opacity=".1" filter="url(#f)" cx="247" cy="160" rx="161" ry="51"/></g></svg>