<?xml version="1.0" encoding="UTF-8"?>
<svg width="108px" height="29px" viewBox="0 0 108 29" version="1.1" xmlns="http://www.w3.org/2000/svg" xmlns:xlink="http://www.w3.org/1999/xlink">
    <!-- Generator: Sketch 51.3 (57544) - http://www.bohemiancoding.com/sketch -->
    <title>logo-inverse</title>
    <desc>Created with Sketch.</desc>
    <defs></defs>
    <g id="Page-1" stroke="none" stroke-width="1" fill="none" fill-rule="evenodd">
        <g id="logo-inverse" fill="#C9C9C9">
            <path d="M5.111,18.563 L5.111,28.234 L0,28.234 L0,0.76 L8.949,0.76 C10.786,0.76 12.375,0.975 13.718,1.406 C15.061,1.836 16.169,2.438 17.043,3.211 C17.9040553,3.96513015 18.5691092,4.91706999 18.981,5.985 C19.399,7.062 19.608,8.24 19.608,9.519 C19.608,10.849 19.386,12.069 18.943,13.177 C18.5088389,14.2718839 17.8258232,15.2507019 16.948,16.036 C16.061,16.834 14.953,17.455 13.623,17.898 C12.293,18.341 10.735,18.563 8.949,18.563 L5.111,18.563 Z M5.111,14.573 L8.949,14.573 C9.886,14.573 10.703,14.456 11.4,14.222 C12.097,13.987 12.673,13.652 13.129,13.215 C13.5903814,12.769569 13.9416631,12.2227884 14.155,11.618 C14.383,10.991 14.497,10.292 14.497,9.519 C14.497,8.784 14.383,8.119 14.155,7.524 C13.937181,6.94375578 13.5856798,6.42301317 13.129,6.004 C12.673,5.586 12.097,5.266 11.4,5.044 C10.703,4.823 9.886,4.712 8.949,4.712 L5.111,4.712 L5.111,14.573 Z M36.639,28.234 L34.53,28.234 C34.087,28.234 33.738,28.168 33.485,28.034 C33.232,27.901 33.042,27.632 32.915,27.227 L32.497,25.84 C32.003,26.283 31.519,26.673 31.043,27.008 C30.5806629,27.3366526 30.0877156,27.6199634 29.571,27.854 C29.0537442,28.0853803 28.511963,28.2574755 27.956,28.367 C27.3298094,28.4861882 26.6934093,28.5434642 26.056,28.538 C25.233,28.538 24.473,28.428 23.776,28.206 C23.114075,28.0034221 22.502395,27.6633348 21.981,27.208 C21.4716175,26.752248 21.0719707,26.1871358 20.812,25.555 C20.533,24.896 20.394,24.13 20.394,23.256 C20.394,22.521 20.587,21.796 20.974,21.081 C21.36,20.365 22.003,19.719 22.902,19.142 C23.802,18.566 24.998,18.088 26.493,17.708 C27.988,17.328 29.843,17.113 32.06,17.062 L32.06,15.922 C32.06,14.617 31.785,13.652 31.234,13.025 C30.682,12.397 29.881,12.084 28.83,12.084 C28.07,12.084 27.437,12.173 26.93,12.35 C26.4713758,12.5053652 26.0292273,12.7056718 25.61,12.948 C25.236,13.17 24.89,13.37 24.574,13.547 C24.2547225,13.7250255 23.8945372,13.816709 23.529,13.813 C23.212,13.813 22.94,13.731 22.712,13.566 C22.4871671,13.4048443 22.2993167,13.197561 22.161,12.958 L21.306,11.457 C23.548,9.405 26.252,8.379 29.419,8.379 C30.559,8.379 31.575,8.566 32.469,8.939 C33.362,9.313 34.119,9.832 34.739,10.498 C35.3728377,11.1846651 35.8552668,11.9968903 36.155,12.882 C36.478,13.807 36.639,14.82 36.639,15.922 L36.639,28.234 Z M27.519,25.308 C28,25.308 28.444,25.264 28.849,25.175 C29.2470481,25.0889589 29.6331982,24.9549816 29.999,24.776 C30.368187,24.5934124 30.717966,24.3739629 31.043,24.121 C31.379,23.861 31.718,23.554 32.06,23.199 L32.06,19.912 C30.692,19.975 29.549,20.092 28.63,20.263 C27.712,20.435 26.974,20.653 26.417,20.919 C25.86,21.185 25.464,21.495 25.229,21.85 C24.9985236,22.1924417 24.8762387,22.5962257 24.878,23.009 C24.878,23.832 25.122,24.421 25.609,24.776 C26.097,25.131 26.734,25.308 27.519,25.308 Z M40.256,28.234 L40.256,8.74 L43.011,8.74 C43.492,8.74 43.828,8.829 44.018,9.006 C44.208,9.183 44.335,9.487 44.398,9.918 L44.683,12.274 C45.38,11.071 46.197,10.121 47.134,9.424 C48.041291,8.73731581 49.1501821,8.36991215 50.288,8.379 C51.251,8.379 52.048,8.601 52.682,9.044 L52.074,12.559 C52.036,12.787 51.954,12.949 51.827,13.043 C51.7,13.139 51.529,13.186 51.314,13.186 C51.124,13.186 50.864,13.142 50.535,13.053 C50.205,12.964 49.769,12.92 49.224,12.92 C48.249,12.92 47.413,13.19 46.716,13.728 C46.019,14.266 45.43,15.054 44.949,16.093 L44.949,28.234 L40.256,28.234 Z M59.529,0 L59.529,16.169 L60.403,16.169 C60.72,16.169 60.967,16.125 61.144,16.036 C61.321,15.947 61.511,15.783 61.714,15.542 L66.559,9.557 C66.774,9.304 67.002,9.104 67.243,8.959 C67.483,8.813 67.8,8.74 68.193,8.74 L72.487,8.74 L66.426,15.979 C66.211,16.245 65.989,16.489 65.761,16.71 C65.5358035,16.9296781 65.2873367,17.1241596 65.02,17.29 C65.286,17.48 65.52,17.702 65.723,17.955 C65.926,18.208 66.128,18.481 66.331,18.772 L72.829,28.234 L68.592,28.234 C68.225,28.234 67.914,28.171 67.661,28.044 C67.408,27.917 67.18,27.702 66.977,27.398 L62.018,20.007 C61.828,19.716 61.638,19.526 61.448,19.437 C61.258,19.348 60.973,19.304 60.593,19.304 L59.529,19.304 L59.529,28.234 L54.836,28.234 L54.836,0 L59.529,0 Z M81.918,8.436 C83.375,8.436 84.695,8.67 85.88,9.139 C87.064,9.608 88.074,10.273 88.91,11.134 C89.746,11.995 90.392,13.047 90.848,14.288 C91.304,15.529 91.532,16.916 91.532,18.449 C91.532,19.994 91.304,21.388 90.848,22.629 C90.392,23.87 89.746,24.928 88.91,25.802 C88.0588651,26.6861539 87.0247203,27.373536 85.88,27.816 C84.695,28.285 83.375,28.519 81.918,28.519 C80.461,28.519 79.138,28.285 77.947,27.816 C76.7962455,27.3739188 75.7554934,26.6866812 74.897,25.802 C74.055,24.928 73.403,23.87 72.94,22.629 C72.478,21.388 72.247,19.994 72.247,18.449 C72.247,16.916 72.478,15.529 72.94,14.288 C73.403,13.047 74.055,11.995 74.898,11.134 C75.74,10.273 76.756,9.608 77.947,9.139 C79.137,8.67 80.461,8.436 81.918,8.436 Z M81.918,24.909 C83.539,24.909 84.739,24.364 85.518,23.275 C86.298,22.185 86.687,20.59 86.687,18.487 C86.687,16.384 86.297,14.782 85.518,13.68 C84.739,12.578 83.539,12.027 81.918,12.027 C80.271,12.027 79.055,12.581 78.27,13.689 C77.485,14.798 77.092,16.397 77.092,18.487 C77.092,20.577 77.485,22.17 78.27,23.266 C79.055,24.361 80.271,24.909 81.918,24.909 Z M105.77,12.54 C105.643,12.743 105.51,12.885 105.371,12.968 C105.231,13.05 105.054,13.091 104.839,13.091 C104.611,13.091 104.367,13.028 104.107,12.901 C103.847,12.774 103.547,12.631 103.205,12.474 C102.826646,12.3021519 102.435871,12.1590796 102.036,12.046 C101.599,11.919 101.083,11.856 100.488,11.856 C99.563,11.856 98.835,12.052 98.303,12.445 C97.771,12.838 97.505,13.351 97.505,13.984 C97.505,14.402 97.641,14.754 97.914,15.038 C98.186,15.324 98.547,15.574 98.996,15.789 C99.446,16.004 99.956,16.197 100.526,16.369 C101.096,16.539 101.679,16.726 102.274,16.929 C102.869,17.132 103.452,17.363 104.022,17.623 C104.592,17.883 105.102,18.211 105.552,18.611 C106.002,19.01 106.362,19.488 106.634,20.045 C106.907,20.602 107.043,21.274 107.043,22.059 C107.052399,22.9497624 106.877752,23.8328692 106.53,24.653 C106.190376,25.4409048 105.677294,26.1419917 105.029,26.704 C104.37,27.281 103.557,27.73 102.588,28.054 C101.618,28.377 100.507,28.538 99.253,28.538 C98.582,28.538 97.926,28.478 97.286,28.358 C96.646,28.238 96.033,28.069 95.443,27.854 C94.8773182,27.6493224 94.3308544,27.3949975 93.81,27.094 C93.3382577,26.8234657 92.8955948,26.5051237 92.489,26.144 L93.572,24.358 C93.712,24.143 93.876,23.978 94.066,23.864 C94.256,23.75 94.496,23.693 94.788,23.693 C95.079,23.693 95.355,23.775 95.614,23.94 C95.874,24.105 96.175,24.282 96.517,24.472 C96.859,24.662 97.261,24.839 97.724,25.004 C98.186,25.169 98.772,25.251 99.481,25.251 C100.038,25.251 100.516,25.185 100.916,25.051 C101.315,24.918 101.644,24.744 101.904,24.529 C102.164,24.314 102.354,24.064 102.474,23.779 C102.594,23.493 102.654,23.199 102.654,22.895 C102.654,22.439 102.518,22.065 102.245,21.774 C101.973,21.483 101.612,21.229 101.162,21.014 C100.665341,20.7806223 100.151087,20.5866904 99.624,20.434 C99.0316464,20.258085 98.4425485,20.0713873 97.857,19.874 C97.255,19.671 96.666,19.434 96.089,19.162 C95.5259192,18.8981453 95.0071028,18.5486695 94.551,18.126 C94.0892857,17.6916049 93.7205127,17.1680426 93.467,16.587 C93.195,15.979 93.059,15.244 93.059,14.383 C93.059,13.585 93.217,12.825 93.534,12.103 C93.853472,11.3773029 94.3303128,10.7317234 94.93,10.213 C95.545,9.674 96.311,9.243 97.23,8.921 C98.148,8.597 99.209,8.436 100.412,8.436 C101.755,8.436 102.977,8.658 104.079,9.101 C105.181,9.544 106.099,10.127 106.834,10.849 L105.77,12.54 Z" id="Shape"></path>
        </g>
    </g>
</svg>