<svg xmlns="http://www.w3.org/2000/svg" viewBox="0 0 250.02 100.142"><defs><style>.a{fill:#c9c9c9}</style></defs><path class="a" d="M23.42 46.793a22.521 22.521 0 0 1-16.786-6.736A22.791 22.791 0 0 1 .009 23.42 22.777 22.777 0 0 1 23.42.009a23.092 23.092 0 0 1 11.277 2.866 21 21 0 0 1 8.077 7.742l-7.665 4.428a12.123 12.123 0 0 0-4.764-4.727 13.883 13.883 0 0 0-6.962-1.709 14.1 14.1 0 0 0-10.574 4.129 14.634 14.634 0 0 0-4.02 10.682 14.577 14.577 0 0 0 4.02 10.607 14.1 14.1 0 0 0 10.57 4.131 14.081 14.081 0 0 0 6.96-1.712 11.618 11.618 0 0 0 4.727-4.652l7.63 4.429a21.156 21.156 0 0 1-8.039 7.742 22.515 22.515 0 0 1-11.237 2.828zM55.54 19.288a8.605 8.605 0 0 1 3.834-4.615 11.542 11.542 0 0 1 5.955-1.526v9.268a9.855 9.855 0 0 0-6.774 1.526c-2.01 1.34-2.978 3.536-2.978 6.625v15.371h-8.3V13.78h8.3v5.508zM67.934 33.25a18.69 18.69 0 0 1-.335-3.424 16.926 16.926 0 0 1 4.615-12.1 15.389 15.389 0 0 1 11.685-4.876 16.43 16.43 0 0 1 12.208 4.838 16.7 16.7 0 0 1 4.764 12.133 16.351 16.351 0 0 1-4.838 12.129c-3.2 3.2-7.481 4.838-12.8 4.838-6.178 0-10.831-2.308-13.994-6.886l6.7-3.871c1.638 2.159 4.02 3.2 7.183 3.2 4.913 0 7.965-2.01 9.044-6.029h-24.23zm21.438-11.2a8.615 8.615 0 0 0-5.508-1.712 8.366 8.366 0 0 0-5.062 1.6 7.867 7.867 0 0 0-2.94 4.876h16.376a7.755 7.755 0 0 0-2.866-4.771zM130.052 13.78h8.3v32.157h-8.3v-3.8q-3.741 4.69-10.5 4.69a14.544 14.544 0 0 1-11.017-4.913 17.059 17.059 0 0 1-4.611-12.055 16.9 16.9 0 0 1 4.615-12.059 14.6 14.6 0 0 1 11.017-4.913q6.755 0 10.5 4.69zm-15.3 22.592a8.5 8.5 0 0 0 6.364 2.531 8.663 8.663 0 0 0 8.933-9.044 8.865 8.865 0 0 0-2.531-6.513 9.315 9.315 0 0 0-12.766 0 8.838 8.838 0 0 0-2.494 6.513 8.9 8.9 0 0 0 2.5 6.513zM163.512 21.745h-7.258v13.361a3.361 3.361 0 0 0 .819 2.456 3.677 3.677 0 0 0 2.456.856 36.349 36.349 0 0 0 3.982-.037v7.518c-5.694.633-9.714.112-12.059-1.6s-3.5-4.764-3.5-9.193V21.745h-5.58V13.78h5.583V7.267l8.3-2.494v9.007h7.258zM195.781 41.881a17.054 17.054 0 1 1 4.95-12.059 16.428 16.428 0 0 1-4.95 12.059zm-18.312-5.695a8.33 8.33 0 0 0 6.216 2.494 8.472 8.472 0 0 0 6.253-2.494 8.61 8.61 0 0 0 2.494-6.364 8.61 8.61 0 0 0-2.494-6.364 9.039 9.039 0 0 0-12.468 0 8.582 8.582 0 0 0-2.456 6.364 8.729 8.729 0 0 0 2.455 6.364zM212.232 19.288a8.605 8.605 0 0 1 3.834-4.615 11.542 11.542 0 0 1 5.955-1.526v9.268a9.855 9.855 0 0 0-6.774 1.526c-2.01 1.34-2.978 3.536-2.978 6.625v15.371h-8.3V13.78h8.3v5.508zM233.447 22.899c0 .856.558 1.563 1.712 2.084a23.073 23.073 0 0 0 4.131 1.414 49.017 49.017 0 0 1 4.876 1.526 9.429 9.429 0 0 1 4.131 3.126 8.508 8.508 0 0 1 1.712 5.471 8.856 8.856 0 0 1-3.685 7.63 15.308 15.308 0 0 1-9.23 2.68c-6.588 0-11.091-2.568-13.51-7.63l7.183-4.057c.93 2.791 3.052 4.169 6.29 4.169 2.978 0 4.429-.93 4.429-2.754 0-.856-.558-1.563-1.712-2.084a27.606 27.606 0 0 0-4.131-1.452 39.265 39.265 0 0 1-4.876-1.6 9.852 9.852 0 0 1-4.131-3.052 7.882 7.882 0 0 1-1.712-5.246 8.948 8.948 0 0 1 3.5-7.481 13.746 13.746 0 0 1 8.709-2.717 14.545 14.545 0 0 1 7.146 1.787 12.738 12.738 0 0 1 5.062 5.062l-7.072 3.871a5.292 5.292 0 0 0-5.136-3.275 4.637 4.637 0 0 0-2.68.707 2.021 2.021 0 0 0-1.006 1.821zM105.934 96.146l-7 3.982-4.059-4.391a19.557 19.557 0 0 1-11.947 3.8c-4.578 0-8.3-1.191-11.2-3.573a11.852 11.852 0 0 1-4.355-9.64 14.513 14.513 0 0 1 1.9-7.295 14.773 14.773 0 0 1 5.546-5.471 13.56 13.56 0 0 1-2.159-7.451 11.859 11.859 0 0 1 3.945-9.23 14.316 14.316 0 0 1 9.97-3.57 15.235 15.235 0 0 1 8.523 2.456 14.7 14.7 0 0 1 5.62 7.072l-7.481 4.317c-1.228-3.573-3.424-5.322-6.551-5.322a5.5 5.5 0 0 0-3.8 1.34 4.3 4.3 0 0 0-1.489 3.387 6.376 6.376 0 0 0 .856 3.238 21.555 21.555 0 0 0 2.754 3.5l9.528 10.421a29.5 29.5 0 0 0 2.159-7.369l7.369 4.206a30.205 30.205 0 0 1-3.871 9.342zm-22.443-4.652a11.027 11.027 0 0 0 5.918-1.6l-9.6-10.421a.34.34 0 0 1-.112-.186 6.847 6.847 0 0 0-3.5 6.178 5.651 5.651 0 0 0 1.861 4.392 8.1 8.1 0 0 0 5.433 1.637zM129.233 100.128a20.229 20.229 0 0 1-11.24-2.978 16.123 16.123 0 0 1-6.439-8.114l7.593-4.429c1.749 4.578 5.211 6.886 10.347 6.886q3.741 0 5.471-1.34a4.183 4.183 0 0 0 1.749-3.424 4.072 4.072 0 0 0-2.121-3.685A32.619 32.619 0 0 0 127 80.178a46.232 46.232 0 0 1-5.1-1.787 21.91 21.91 0 0 1-4.169-2.419 9.7 9.7 0 0 1-3.2-3.834 12.261 12.261 0 0 1-1.079-5.4 12.073 12.073 0 0 1 4.355-9.751 15.774 15.774 0 0 1 10.459-3.647 17.25 17.25 0 0 1 9.6 2.68 18.226 18.226 0 0 1 6.476 7.407l-7.444 4.317c-1.786-3.871-4.652-5.769-8.6-5.769a6.811 6.811 0 0 0-4.355 1.265 3.967 3.967 0 0 0-1.563 3.238 4.03 4.03 0 0 0 1.787 3.424c1.154.893 3.424 1.824 6.774 2.866 1.377.447 2.419.744 3.126 1 .707.223 1.675.6 2.9 1.079a18.325 18.325 0 0 1 2.829 1.377 22.252 22.252 0 0 1 2.27 1.749 9.9 9.9 0 0 1 1.973 2.27 14.012 14.012 0 0 1 1.161 2.8 13.148 13.148 0 0 1-4.057 13.473 19.059 19.059 0 0 1-11.91 3.611zM157.259 84.459c0 2.643.633 4.652 1.935 5.992a6.84 6.84 0 0 0 5.136 2.01 6.353 6.353 0 0 0 4.652-1.712 6.653 6.653 0 0 0 1.749-4.913V67.115h8.3v19.726c0 4.169-1.154 7.407-3.424 9.751a11.726 11.726 0 0 1-8.709 3.536c-4.392 0-7.555-1.489-9.565-4.5v3.61h-8.3v-32.16h8.3v17.381zM199.652 100.128a16.973 16.973 0 1 1 0-33.945 16.79 16.79 0 0 1 8.56 2.234 14.921 14.921 0 0 1 5.843 6.029l-7.146 4.169a7.091 7.091 0 0 0-2.94-3.164 8.973 8.973 0 0 0-10.57 1.3 9.386 9.386 0 0 0 0 12.58 8.358 8.358 0 0 0 6.181 2.453 8.841 8.841 0 0 0 4.466-1.117 7.229 7.229 0 0 0 2.94-3.126l7.183 4.131a16.157 16.157 0 0 1-5.992 6.067 15.435 15.435 0 0 1-8.522 2.386zM236.05 67.115a11.726 11.726 0 0 1 8.709 3.536c2.308 2.345 3.424 5.62 3.424 9.751v19.728h-8.3V81.407a6.538 6.538 0 0 0-1.749-4.913 6.265 6.265 0 0 0-4.615-1.712 6.727 6.727 0 0 0-5.136 2.01c-1.3 1.34-1.935 3.312-1.935 5.992v17.346h-8.3v-45h8.3v16.451q3.017-4.466 9.602-4.466z"/></svg>