<svg xmlns="http://www.w3.org/2000/svg" viewBox="0 0 154 105"><defs><style>.a{fill:#c9c9c9}.b{fill:#fff}</style></defs><path class="a" d="M0 0h154v105H0z"/><path class="b" d="M24.4 90.3a9.45 9.45 0 0 1 0-18.9 9.413 9.413 0 0 1 7.3 3.1l-2.6 2.8a6.289 6.289 0 0 0-4.7-2.3c-3 0-5.2 2.6-5.2 5.8 0 3.3 2.2 5.9 5.4 5.9a6.124 6.124 0 0 0 4.7-2.3l2.5 2.5a8.907 8.907 0 0 1-7.4 3.4zM45.1 89.9v-2.2a7.184 7.184 0 0 1-5.9 2.6c-3.4 0-6.5-2-6.5-5.6v-.1c0-3.9 3.1-5.8 7.4-5.8a13.748 13.748 0 0 1 5 .8v-.4c0-2.5-1.6-3.9-4.5-3.9a12.742 12.742 0 0 0-5.2 1.1L34.3 73a15.643 15.643 0 0 1 6.9-1.5c5.4 0 8 2.8 8 7.7V90h-4.1zm.1-7.7a12.242 12.242 0 0 0-4.2-.7c-2.6 0-4.2 1.1-4.2 2.9v.1c0 1.7 1.5 2.7 3.5 2.7 2.8 0 4.8-1.5 4.8-3.8v-1.2zM57.3 84.2c0 1.6.8 2.3 2.2 2.3a5.834 5.834 0 0 0 2.6-.6v3.4a6.994 6.994 0 0 1-3.7.9c-3.1 0-5.2-1.3-5.2-5.3v-9.6h-2.3v-3.6h2.3v-5h4.2v5h4.9v3.6h-4.9v8.9zM75.7 89.9v-2.2a7.184 7.184 0 0 1-5.9 2.6c-3.4 0-6.5-2-6.5-5.6v-.1c0-3.9 3.1-5.8 7.4-5.8a13.748 13.748 0 0 1 5 .8v-.4c0-2.5-1.6-3.9-4.5-3.9a12.742 12.742 0 0 0-5.2 1.1L65 73a15.643 15.643 0 0 1 6.9-1.5c5.4 0 8 2.8 8 7.7V90h-4.2zm.1-7.7a12.242 12.242 0 0 0-4.2-.7c-2.6 0-4.2 1.1-4.2 2.9v.1c0 1.7 1.5 2.7 3.5 2.7 2.8 0 4.8-1.5 4.8-3.8v-1.2zM101.2 86.4l4.7-14.3h2.8L102.4 90h-2.3l-4.8-14-4.8 14h-2.3L82 72.1h2.8l4.7 14.3 4.8-14.3h2.2l4.7 14.3zM111.4 89.9V72.1h2.6v17.8h-2.6zM133.6 89.9h-3.2l-6.4-8.3-3.6 3.7v4.6h-2.7V64.8h2.7v17.3l9.6-10h3.3l-7.5 7.6 7.8 10.2zM135.7 89.9V72.1h2.6v17.8h-2.6z"/><circle class="b" cx="1.7" cy="1.7" r="1.7" transform="translate(111 65.1)"/><circle class="b" cx="1.7" cy="1.7" r="1.7" transform="translate(135.3 65.1)"/></svg>